<?xml version="1.0" encoding="UTF-8" standalone="no"?>
<!-- Created with Inkscape (http://www.inkscape.org/) -->

<svg
   width="170.16605mm"
   height="170.16606mm"
   viewBox="0 0 170.16605 170.16606"
   version="1.1"
   id="svg1"
   xml:space="preserve"
   inkscape:version="1.3.2 (091e20e, 2023-11-25, custom)"
   sodipodi:docname="drawing.svg"
   xmlns:inkscape="http://www.inkscape.org/namespaces/inkscape"
   xmlns:sodipodi="http://sodipodi.sourceforge.net/DTD/sodipodi-0.dtd"
   xmlns="http://www.w3.org/2000/svg"
   xmlns:svg="http://www.w3.org/2000/svg"><sodipodi:namedview
     id="namedview1"
     pagecolor="#505050"
     bordercolor="#ffffff"
     borderopacity="1"
     inkscape:showpageshadow="0"
     inkscape:pageopacity="0"
     inkscape:pagecheckerboard="1"
     inkscape:deskcolor="#505050"
     inkscape:document-units="mm"
     inkscape:zoom="0.79844143"
     inkscape:cx="1039.5252"
     inkscape:cy="550.44739"
     inkscape:window-width="1920"
     inkscape:window-height="1009"
     inkscape:window-x="-8"
     inkscape:window-y="-8"
     inkscape:window-maximized="1"
     inkscape:current-layer="layer1" /><defs
     id="defs1" /><g
     inkscape:label="Layer 1"
     inkscape:groupmode="layer"
     id="layer1"
     transform="translate(-15.974965,-55.034125)"><g
       id="g1"><rect
         style="fill:#000000;fill-opacity:1;stroke:none;stroke-width:0.162;stroke-linejoin:bevel;stroke-opacity:1"
         id="rect18"
         width="170.16605"
         height="170.16605"
         x="15.974964"
         y="55.034126"
         ry="6.2103319" /><path
         d="m 101.05799,140.17425 -2.653585,4.2354 -6.631115,10.58282 -4.875672,7.78092 -1.985408,3.16931 -6.044593,9.64644 h 5.307687 l 6.044592,-9.64644 1.985409,-3.16931 4.87567,-7.78092 3.977015,-6.34742 z"
         style="fill:#abb1b1;fill-opacity:1;stroke:none;stroke-width:0.162379;stroke-linejoin:bevel;stroke-opacity:1"
         id="path29" /><path
         d="m 117.20377,165.9427 6.0446,9.64644 4.7625,7.60109 1.97197,3.14658 8.97568,14.32522 4.12274,-7.28896 -4.40903,-7.03626 -1.97146,-3.14658 -4.7625,-7.60109 -6.04459,-9.64644 z"
         style="fill:#0013ff;fill-opacity:1;stroke:none;stroke-width:0.162379;stroke-linejoin:bevel;stroke-opacity:1"
         id="path26" /><path
         d="m 101.05799,126.30533 -4.344955,6.93446 -2.65358,4.2354 -10.976074,17.51728 -4.875672,7.78092 -1.985408,3.16931 -6.044592,9.64644 h 8.689908 l 6.044593,-9.64644 1.985408,-3.16931 4.875672,-7.78092 6.631115,-10.58282 2.653585,-4.2354 2.65358,4.2354 6.63112,10.58282 h 8.68991 l -10.97607,-17.51728 -2.65359,-4.2354 z"
         style="fill:#0013ff;fill-opacity:1;stroke:none;stroke-width:0.162379;stroke-linejoin:bevel;stroke-opacity:1"
         id="path25" /><path
         d="m 136.70077,183.19023 1.97146,3.14658 h 16.83101 l 4.17598,-3.14658 h -6.14743 z"
         style="fill:#58595a;fill-opacity:1;stroke:none;stroke-width:0.162379;stroke-linejoin:bevel;stroke-opacity:1"
         id="path17" /><path
         d="m 92.205305,162.77339 -1.985409,3.16931 h 21.676194 5.30768 8.68991 16.83102 l 4.24211,-3.04116 -0.0806,-0.12815 h -6.14743 -16.8305 -8.6899 -5.30769 z"
         style="fill:#58595a;fill-opacity:1;stroke:none;stroke-width:0.162;stroke-linejoin:bevel;stroke-opacity:1"
         id="path21" /><path
         d="m 55.229784,162.77339 4.161503,3.16931 h 16.831014 l 1.985408,-3.16931 H 61.377212 Z"
         style="fill:#58595a;fill-opacity:1;stroke:none;stroke-width:0.162;stroke-linejoin:bevel;stroke-opacity:1"
         id="path20" /><path
         d="m 101.05799,140.17425 v 8.4708 l 3.97702,6.34742 h 5.30768 l -6.63112,-10.58282 z"
         style="fill:#494344;fill-opacity:1;stroke:none;stroke-width:0.162;stroke-linejoin:bevel;stroke-opacity:1"
         id="path28" /><path
         d="m 111.89609,165.9427 6.04459,9.64644 4.7625,7.60109 1.97197,3.14658 8.97568,14.32522 h 5.30769 l -8.97568,-14.32522 -1.97197,-3.14658 -4.7625,-7.60109 -6.0446,-9.64644 z"
         style="fill:#494344;fill-opacity:1;stroke:none;stroke-width:0.162;stroke-linejoin:bevel;stroke-opacity:1"
         id="path27" /><path
         d="m 101.05799,89.633152 v 9.811292 l 8.41551,13.430696 4.34495,6.93394 2.65359,4.23592 19.39158,30.94747 h 6.14743 l -22.46478,-35.85363 -2.65411,-4.2354 -4.34495,-6.93446 -8.41551,-13.430186 z"
         style="fill:#494344;fill-opacity:1;stroke:none;stroke-width:0.162;stroke-linejoin:bevel;stroke-opacity:1"
         id="path24" /><path
         d="m 101.05799,89.633152 -3.073705,4.905643 -8.415512,13.430185 -4.344954,6.93446 -2.654102,4.2354 -22.464779,35.85363 h 6.147429 l 19.391581,-30.94747 2.653585,-4.23592 4.344954,-6.93394 8.415503,-13.430697 z"
         style="fill:#abb1b1;fill-opacity:1;stroke:none;stroke-width:0.162;stroke-linejoin:bevel;stroke-opacity:1"
         id="path23" /><path
         d="m 148.76929,175.58914 h 6.14691 l -7.94939,-12.6876 -4.24211,3.04116 6.04407,9.64644 z"
         style="fill:#494344;fill-opacity:1;stroke:none;stroke-width:0.162;stroke-linejoin:bevel;stroke-opacity:1"
         id="path22" /><path
         d="m 47.199783,175.58914 h 6.146912 l 6.044592,-9.64644 -4.161503,-3.16931 z"
         style="fill:#abb1b1;fill-opacity:1;stroke:none;stroke-width:0.162;stroke-linejoin:bevel;stroke-opacity:1"
         id="path19" /><path
         d="m 72.133145,186.33681 h -8.689392 l -4.409033,7.03626 4.122745,7.28896 z"
         style="fill:#0013ff;fill-opacity:1;stroke:none;stroke-width:0.162;stroke-linejoin:bevel;stroke-opacity:1"
         id="path18" /><path
         d="m 42.436766,183.19023 4.175973,3.14658 h 16.831014 8.689392 5.307686 47.234319 l -1.97197,-3.14658 H 79.412804 74.105117 65.415209 48.584195 Z"
         style="fill:#58595a;fill-opacity:1;stroke:none;stroke-width:0.162;stroke-linejoin:bevel;stroke-opacity:1"
         id="path16" /><path
         d="m 72.133145,186.33681 -8.97568,14.32522 h 5.307687 l 8.975679,-14.32522 z"
         style="fill:#abb1b1;fill-opacity:1;stroke:none;stroke-width:0.162;stroke-linejoin:bevel;stroke-opacity:1"
         id="path15" /><path
         d="m 170.62687,200.66203 -10.94765,-17.4718 -4.17598,3.14658 8.9762,14.32522 z"
         style="fill:#494344;fill-opacity:1;stroke:none;stroke-width:0.162;stroke-linejoin:bevel;stroke-opacity:1"
         id="path14" /><path
         d="m 46.612739,186.33681 -4.175973,-3.14658 -10.947652,17.4718 h 6.147428 z"
         style="fill:#abb1b1;fill-opacity:1;stroke:none;stroke-width:0.162;stroke-linejoin:bevel;stroke-opacity:1"
         id="path13" /><path
         d="m 101.05799,79.572267 -3.151745,5.030184 -3.074227,4.905644 -8.414991,13.430705 -4.344954,6.93446 -2.654102,4.2354 -50.829972,81.12269 2.901115,5.43068 10.947652,-17.4718 h 6.147429 16.831014 8.689908 5.307687 43.290376 l -4.7625,-7.60109 H 84.175304 78.867617 70.177709 53.346695 47.199783 l 8.030001,-12.81575 h 6.147428 16.830497 l 4.875672,-7.78092 H 66.252367 60.104938 l 22.464779,-35.85363 2.654102,-4.2354 4.344954,-6.93446 8.415512,-13.430186 3.073705,-4.905643 3.07371,4.905643 8.41551,13.430186 4.34495,6.93446 2.65411,4.2354 22.46478,35.85363 h -6.14743 -16.83102 -8.68991 -5.30768 -7.954035 l -4.87567,7.78092 h 17.705375 5.30769 8.6899 16.8305 6.14743 l 0.0806,0.12815 7.94939,12.6876 h -6.14691 -5.2e-4 -16.8305 l 4.7625,7.60109 h 16.83102 6.14743 l 10.94765,17.4718 2.90111,-5.43068 -50.82997,-81.12269 -2.6541,-4.2354 -4.34495,-6.93446 -8.41499,-13.430705 -3.07424,-4.905644 z"
         style="fill:#ff0100;fill-opacity:1;stroke:none;stroke-width:0.162;stroke-linejoin:bevel;stroke-opacity:1"
         id="path12" /></g></g></svg>
